<mxfile host="app.diagrams.net" modified="2023-05-26T03:19:54.377Z" agent="Mozilla/5.0 (Windows NT 10.0; Win64; x64) AppleWebKit/537.36 (KHTML, like Gecko) Chrome/113.0.0.0 Safari/537.36" etag="i0tBsw5bam4NgSKNkrcE" version="21.3.4" type="github">
  <diagram name="AMS的启动" id="13e1069c-82ec-6db2-03f1-153e76fe0fe0">
    <mxGraphModel dx="1249" dy="1559" grid="1" gridSize="10" guides="1" tooltips="1" connect="1" arrows="1" fold="1" page="1" pageScale="1" pageWidth="1100" pageHeight="850" background="none" math="0" shadow="0">
      <root>
        <mxCell id="0" />
        <mxCell id="1" parent="0" />
        <mxCell id="7baba1c4bc27f4b0-2" value="zygote" style="shape=umlLifeline;perimeter=lifelinePerimeter;whiteSpace=wrap;html=1;container=1;collapsible=0;recursiveResize=0;outlineConnect=0;rounded=1;shadow=0;comic=0;labelBackgroundColor=none;strokeWidth=1;fontFamily=Verdana;fontSize=12;align=center;" parent="1" vertex="1">
          <mxGeometry x="240" y="80" width="100" height="580" as="geometry" />
        </mxCell>
        <mxCell id="7baba1c4bc27f4b0-10" value="" style="html=1;points=[];perimeter=orthogonalPerimeter;rounded=0;shadow=0;comic=0;labelBackgroundColor=none;strokeWidth=1;fontFamily=Verdana;fontSize=12;align=center;" parent="7baba1c4bc27f4b0-2" vertex="1">
          <mxGeometry x="45" y="100" width="10" height="230" as="geometry" />
        </mxCell>
        <mxCell id="7baba1c4bc27f4b0-3" value="systemserver" style="shape=umlLifeline;perimeter=lifelinePerimeter;whiteSpace=wrap;html=1;container=1;collapsible=0;recursiveResize=0;outlineConnect=0;rounded=1;shadow=0;comic=0;labelBackgroundColor=none;strokeWidth=1;fontFamily=Verdana;fontSize=12;align=center;" parent="1" vertex="1">
          <mxGeometry x="400" y="80" width="100" height="860" as="geometry" />
        </mxCell>
        <mxCell id="7baba1c4bc27f4b0-13" value="" style="html=1;points=[];perimeter=orthogonalPerimeter;rounded=0;shadow=0;comic=0;labelBackgroundColor=none;strokeWidth=1;fontFamily=Verdana;fontSize=12;align=center;" parent="7baba1c4bc27f4b0-3" vertex="1">
          <mxGeometry x="45" y="120" width="10" height="740" as="geometry" />
        </mxCell>
        <mxCell id="YjqYYw0XFiN7RJlji_GY-12" value="" style="html=1;points=[];perimeter=orthogonalPerimeter;rounded=0;shadow=0;comic=0;labelBackgroundColor=none;strokeWidth=1;fontFamily=Verdana;fontSize=12;align=center;" vertex="1" parent="7baba1c4bc27f4b0-3">
          <mxGeometry x="51" y="140" width="10" height="680" as="geometry" />
        </mxCell>
        <mxCell id="YjqYYw0XFiN7RJlji_GY-15" value="" style="html=1;points=[];perimeter=orthogonalPerimeter;rounded=0;shadow=0;comic=0;labelBackgroundColor=none;strokeWidth=1;fontFamily=Verdana;fontSize=12;align=center;" vertex="1" parent="7baba1c4bc27f4b0-3">
          <mxGeometry x="61" y="185" width="10" height="70" as="geometry" />
        </mxCell>
        <mxCell id="7baba1c4bc27f4b0-4" value="systemservicemanager" style="shape=umlLifeline;perimeter=lifelinePerimeter;whiteSpace=wrap;html=1;container=1;collapsible=0;recursiveResize=0;outlineConnect=0;rounded=1;shadow=0;comic=0;labelBackgroundColor=none;strokeWidth=1;fontFamily=Verdana;fontSize=12;align=center;" parent="1" vertex="1">
          <mxGeometry x="540" y="79" width="150" height="680" as="geometry" />
        </mxCell>
        <mxCell id="YjqYYw0XFiN7RJlji_GY-22" value="startService" style="html=1;verticalAlign=bottom;endArrow=block;labelBackgroundColor=none;fontFamily=Verdana;fontSize=12;edgeStyle=elbowEdgeStyle;elbow=vertical;entryX=0.2;entryY=0.047;entryDx=0;entryDy=0;entryPerimeter=0;" edge="1" parent="7baba1c4bc27f4b0-4" target="YjqYYw0XFiN7RJlji_GY-28">
          <mxGeometry x="0.0072" relative="1" as="geometry">
            <mxPoint x="-59" y="370" as="sourcePoint" />
            <mxPoint x="80" y="370" as="targetPoint" />
            <mxPoint as="offset" />
          </mxGeometry>
        </mxCell>
        <mxCell id="YjqYYw0XFiN7RJlji_GY-28" value="" style="html=1;points=[];perimeter=orthogonalPerimeter;rounded=0;shadow=0;comic=0;labelBackgroundColor=none;strokeWidth=1;fontFamily=Verdana;fontSize=12;align=center;" vertex="1" parent="7baba1c4bc27f4b0-4">
          <mxGeometry x="70" y="367" width="10" height="100" as="geometry" />
        </mxCell>
        <mxCell id="YjqYYw0XFiN7RJlji_GY-54" value="" style="html=1;points=[];perimeter=orthogonalPerimeter;rounded=0;shadow=0;comic=0;labelBackgroundColor=none;strokeWidth=1;fontFamily=Verdana;fontSize=12;align=center;" vertex="1" parent="7baba1c4bc27f4b0-4">
          <mxGeometry x="70" y="580" width="10" height="100" as="geometry" />
        </mxCell>
        <mxCell id="7baba1c4bc27f4b0-5" value="ActivityTaskManagerService" style="shape=umlLifeline;perimeter=lifelinePerimeter;whiteSpace=wrap;html=1;container=1;collapsible=0;recursiveResize=0;outlineConnect=0;rounded=1;shadow=0;comic=0;labelBackgroundColor=none;strokeWidth=1;fontFamily=Verdana;fontSize=12;align=center;" parent="1" vertex="1">
          <mxGeometry x="725" y="80" width="175" height="590" as="geometry" />
        </mxCell>
        <mxCell id="YjqYYw0XFiN7RJlji_GY-32" value="" style="html=1;points=[];perimeter=orthogonalPerimeter;rounded=0;shadow=0;comic=0;labelBackgroundColor=none;strokeWidth=1;fontFamily=Verdana;fontSize=12;align=center;" vertex="1" parent="7baba1c4bc27f4b0-5">
          <mxGeometry x="82.5" y="410" width="10" height="100" as="geometry" />
        </mxCell>
        <mxCell id="YjqYYw0XFiN7RJlji_GY-33" value="publishBinderService" style="html=1;verticalAlign=bottom;endArrow=block;labelBackgroundColor=none;fontFamily=Verdana;fontSize=12;elbow=vertical;edgeStyle=orthogonalEdgeStyle;curved=1;exitX=1.038;exitY=0.345;exitPerimeter=0;" edge="1" parent="7baba1c4bc27f4b0-5">
          <mxGeometry x="-0.2086" y="5" relative="1" as="geometry">
            <mxPoint x="95" y="420" as="sourcePoint" />
            <mxPoint x="104" y="458" as="targetPoint" />
            <Array as="points">
              <mxPoint x="150" y="420" />
              <mxPoint x="150" y="458" />
            </Array>
            <mxPoint as="offset" />
          </mxGeometry>
        </mxCell>
        <mxCell id="YjqYYw0XFiN7RJlji_GY-57" value="startService" style="text;html=1;align=center;verticalAlign=middle;resizable=0;points=[];autosize=1;strokeColor=none;fillColor=none;" vertex="1" parent="7baba1c4bc27f4b0-5">
          <mxGeometry y="560" width="90" height="30" as="geometry" />
        </mxCell>
        <mxCell id="7baba1c4bc27f4b0-6" value="ActivityManagerService" style="shape=umlLifeline;perimeter=lifelinePerimeter;whiteSpace=wrap;html=1;container=1;collapsible=0;recursiveResize=0;outlineConnect=0;rounded=1;shadow=0;comic=0;labelBackgroundColor=none;strokeWidth=1;fontFamily=Verdana;fontSize=12;align=center;" parent="1" vertex="1">
          <mxGeometry x="920" y="80" width="160" height="1314" as="geometry" />
        </mxCell>
        <mxCell id="YjqYYw0XFiN7RJlji_GY-48" value="" style="html=1;points=[];perimeter=orthogonalPerimeter;rounded=0;shadow=0;comic=0;labelBackgroundColor=none;strokeWidth=1;fontFamily=Verdana;fontSize=12;align=center;" vertex="1" parent="7baba1c4bc27f4b0-6">
          <mxGeometry x="75" y="542" width="10" height="198" as="geometry" />
        </mxCell>
        <mxCell id="YjqYYw0XFiN7RJlji_GY-59" value="" style="html=1;points=[];perimeter=orthogonalPerimeter;rounded=0;shadow=0;comic=0;labelBackgroundColor=none;strokeWidth=1;fontFamily=Verdana;fontSize=12;align=center;" vertex="1" parent="7baba1c4bc27f4b0-6">
          <mxGeometry x="65" y="620" width="10" height="100" as="geometry" />
        </mxCell>
        <mxCell id="YjqYYw0XFiN7RJlji_GY-66" value="" style="html=1;points=[];perimeter=orthogonalPerimeter;rounded=0;shadow=0;comic=0;labelBackgroundColor=none;strokeWidth=1;fontFamily=Verdana;fontSize=12;align=center;" vertex="1" parent="7baba1c4bc27f4b0-6">
          <mxGeometry x="75" y="770" width="10" height="80" as="geometry" />
        </mxCell>
        <mxCell id="7baba1c4bc27f4b0-8" value="zygoteInit" style="shape=umlLifeline;perimeter=lifelinePerimeter;whiteSpace=wrap;html=1;container=1;collapsible=0;recursiveResize=0;outlineConnect=0;rounded=1;shadow=0;comic=0;labelBackgroundColor=none;strokeWidth=1;fontFamily=Verdana;fontSize=12;align=center;" parent="1" vertex="1">
          <mxGeometry x="100" y="80" width="100" height="580" as="geometry" />
        </mxCell>
        <mxCell id="7baba1c4bc27f4b0-9" value="" style="html=1;points=[];perimeter=orthogonalPerimeter;rounded=0;shadow=0;comic=0;labelBackgroundColor=none;strokeWidth=1;fontFamily=Verdana;fontSize=12;align=center;" parent="7baba1c4bc27f4b0-8" vertex="1">
          <mxGeometry x="45" y="100" width="10" height="440" as="geometry" />
        </mxCell>
        <mxCell id="7baba1c4bc27f4b0-11" value="forkSystemServer" style="html=1;verticalAlign=bottom;endArrow=block;entryX=0;entryY=0;labelBackgroundColor=none;fontFamily=Verdana;fontSize=12;edgeStyle=elbowEdgeStyle;elbow=vertical;" parent="1" source="7baba1c4bc27f4b0-9" target="7baba1c4bc27f4b0-10" edge="1">
          <mxGeometry relative="1" as="geometry">
            <mxPoint x="220" y="190" as="sourcePoint" />
          </mxGeometry>
        </mxCell>
        <mxCell id="7baba1c4bc27f4b0-14" value="invoke" style="html=1;verticalAlign=bottom;endArrow=block;dashed=1;entryX=0;entryY=0;labelBackgroundColor=none;fontFamily=Verdana;fontSize=12;edgeStyle=elbowEdgeStyle;elbow=vertical;" parent="1" source="7baba1c4bc27f4b0-10" target="7baba1c4bc27f4b0-13" edge="1">
          <mxGeometry relative="1" as="geometry">
            <mxPoint x="370" y="200" as="sourcePoint" />
            <mxPoint as="offset" />
          </mxGeometry>
        </mxCell>
        <mxCell id="7baba1c4bc27f4b0-40" value="zygote进程" style="shape=note;whiteSpace=wrap;html=1;size=14;verticalAlign=top;align=left;spacingTop=-6;rounded=0;shadow=0;comic=0;labelBackgroundColor=none;strokeWidth=1;fontFamily=Verdana;fontSize=12" parent="1" vertex="1">
          <mxGeometry x="100" y="30" width="260" height="35" as="geometry" />
        </mxCell>
        <mxCell id="7baba1c4bc27f4b0-42" value="systemserver进程" style="shape=note;whiteSpace=wrap;html=1;size=14;verticalAlign=top;align=left;spacingTop=-6;rounded=0;shadow=0;comic=0;labelBackgroundColor=none;strokeWidth=1;fontFamily=Verdana;fontSize=12" parent="1" vertex="1">
          <mxGeometry x="400" y="30" width="550" height="35" as="geometry" />
        </mxCell>
        <mxCell id="YjqYYw0XFiN7RJlji_GY-5" value="zygote会在fork出systemserver进程后通过invoke调用systemserver的main方法" style="text;html=1;strokeColor=none;fillColor=none;align=center;verticalAlign=middle;whiteSpace=wrap;rounded=0;" vertex="1" parent="1">
          <mxGeometry x="290" y="140" width="170" height="30" as="geometry" />
        </mxCell>
        <mxCell id="YjqYYw0XFiN7RJlji_GY-13" value="main" style="html=1;verticalAlign=bottom;endArrow=block;labelBackgroundColor=none;fontFamily=Verdana;fontSize=12;elbow=vertical;edgeStyle=orthogonalEdgeStyle;curved=1;entryX=1;entryY=0.286;entryPerimeter=0;exitX=1.038;exitY=0.345;exitPerimeter=0;" edge="1" parent="1">
          <mxGeometry relative="1" as="geometry">
            <mxPoint x="457" y="210" as="sourcePoint" />
            <mxPoint x="462" y="248" as="targetPoint" />
            <Array as="points">
              <mxPoint x="512" y="210" />
              <mxPoint x="512" y="248" />
            </Array>
          </mxGeometry>
        </mxCell>
        <mxCell id="YjqYYw0XFiN7RJlji_GY-16" value="SystemServer" style="html=1;verticalAlign=bottom;endArrow=block;labelBackgroundColor=none;fontFamily=Verdana;fontSize=12;elbow=vertical;edgeStyle=orthogonalEdgeStyle;curved=1;entryX=1;entryY=0.286;entryPerimeter=0;exitX=1.038;exitY=0.345;exitPerimeter=0;" edge="1" parent="1">
          <mxGeometry relative="1" as="geometry">
            <mxPoint x="462" y="256" as="sourcePoint" />
            <mxPoint x="467" y="294" as="targetPoint" />
            <Array as="points">
              <mxPoint x="517" y="256" />
              <mxPoint x="517" y="294" />
            </Array>
          </mxGeometry>
        </mxCell>
        <mxCell id="YjqYYw0XFiN7RJlji_GY-67" value="" style="edgeStyle=orthogonalEdgeStyle;rounded=0;orthogonalLoop=1;jettySize=auto;html=1;" edge="1" parent="1" source="YjqYYw0XFiN7RJlji_GY-17" target="YjqYYw0XFiN7RJlji_GY-66">
          <mxGeometry relative="1" as="geometry">
            <Array as="points">
              <mxPoint x="870" y="860" />
              <mxPoint x="870" y="860" />
            </Array>
          </mxGeometry>
        </mxCell>
        <mxCell id="YjqYYw0XFiN7RJlji_GY-68" value="setSystemProcess" style="edgeLabel;html=1;align=center;verticalAlign=middle;resizable=0;points=[];" vertex="1" connectable="0" parent="YjqYYw0XFiN7RJlji_GY-67">
          <mxGeometry x="-0.0865" y="-2" relative="1" as="geometry">
            <mxPoint as="offset" />
          </mxGeometry>
        </mxCell>
        <mxCell id="YjqYYw0XFiN7RJlji_GY-17" value="" style="html=1;points=[];perimeter=orthogonalPerimeter;rounded=0;shadow=0;comic=0;labelBackgroundColor=none;strokeWidth=1;fontFamily=Verdana;fontSize=12;align=center;" vertex="1" parent="1">
          <mxGeometry x="461" y="346" width="10" height="544" as="geometry" />
        </mxCell>
        <mxCell id="YjqYYw0XFiN7RJlji_GY-20" value="run" style="html=1;verticalAlign=bottom;endArrow=block;labelBackgroundColor=none;fontFamily=Verdana;fontSize=12;elbow=vertical;edgeStyle=orthogonalEdgeStyle;curved=1;exitX=1.038;exitY=0.345;exitPerimeter=0;" edge="1" parent="1">
          <mxGeometry relative="1" as="geometry">
            <mxPoint x="461" y="340" as="sourcePoint" />
            <mxPoint x="470" y="378" as="targetPoint" />
            <Array as="points">
              <mxPoint x="516" y="340" />
              <mxPoint x="516" y="378" />
            </Array>
          </mxGeometry>
        </mxCell>
        <mxCell id="YjqYYw0XFiN7RJlji_GY-19" value="" style="html=1;points=[];perimeter=orthogonalPerimeter;rounded=0;shadow=0;comic=0;labelBackgroundColor=none;strokeWidth=1;fontFamily=Verdana;fontSize=12;align=center;" vertex="1" parent="1">
          <mxGeometry x="471" y="390" width="10" height="100" as="geometry" />
        </mxCell>
        <mxCell id="YjqYYw0XFiN7RJlji_GY-21" value="startBootstrapServices" style="html=1;verticalAlign=bottom;endArrow=block;labelBackgroundColor=none;fontFamily=Verdana;fontSize=12;elbow=vertical;edgeStyle=orthogonalEdgeStyle;curved=1;exitX=1.038;exitY=0.345;exitPerimeter=0;" edge="1" parent="1">
          <mxGeometry x="-0.1655" y="4" relative="1" as="geometry">
            <mxPoint x="472" y="390" as="sourcePoint" />
            <mxPoint x="481" y="428" as="targetPoint" />
            <Array as="points">
              <mxPoint x="527" y="390" />
              <mxPoint x="527" y="428" />
            </Array>
            <mxPoint as="offset" />
          </mxGeometry>
        </mxCell>
        <mxCell id="YjqYYw0XFiN7RJlji_GY-31" style="edgeStyle=orthogonalEdgeStyle;rounded=0;orthogonalLoop=1;jettySize=auto;html=1;" edge="1" parent="1" source="YjqYYw0XFiN7RJlji_GY-28" target="7baba1c4bc27f4b0-5">
          <mxGeometry relative="1" as="geometry">
            <Array as="points">
              <mxPoint x="740" y="496" />
              <mxPoint x="740" y="496" />
            </Array>
          </mxGeometry>
        </mxCell>
        <mxCell id="YjqYYw0XFiN7RJlji_GY-35" value="new" style="text;html=1;align=center;verticalAlign=middle;resizable=0;points=[];autosize=1;strokeColor=none;fillColor=none;" vertex="1" parent="1">
          <mxGeometry x="675" y="470" width="50" height="30" as="geometry" />
        </mxCell>
        <mxCell id="YjqYYw0XFiN7RJlji_GY-36" value="ServiceManager" style="shape=umlLifeline;perimeter=lifelinePerimeter;whiteSpace=wrap;html=1;container=1;collapsible=0;recursiveResize=0;outlineConnect=0;rounded=1;shadow=0;comic=0;labelBackgroundColor=none;strokeWidth=1;fontFamily=Verdana;fontSize=12;align=center;" vertex="1" parent="1">
          <mxGeometry x="1100" y="79" width="160" height="1001" as="geometry" />
        </mxCell>
        <mxCell id="YjqYYw0XFiN7RJlji_GY-38" value="" style="html=1;points=[];perimeter=orthogonalPerimeter;rounded=0;shadow=0;comic=0;labelBackgroundColor=none;strokeWidth=1;fontFamily=Verdana;fontSize=12;align=center;" vertex="1" parent="YjqYYw0XFiN7RJlji_GY-36">
          <mxGeometry x="75" y="471" width="10" height="100" as="geometry" />
        </mxCell>
        <mxCell id="YjqYYw0XFiN7RJlji_GY-73" value="" style="html=1;points=[];perimeter=orthogonalPerimeter;rounded=0;shadow=0;comic=0;labelBackgroundColor=none;strokeWidth=1;fontFamily=Verdana;fontSize=12;align=center;" vertex="1" parent="YjqYYw0XFiN7RJlji_GY-36">
          <mxGeometry x="75" y="771" width="10" height="80" as="geometry" />
        </mxCell>
        <mxCell id="YjqYYw0XFiN7RJlji_GY-39" value="" style="edgeStyle=orthogonalEdgeStyle;rounded=0;orthogonalLoop=1;jettySize=auto;html=1;" edge="1" parent="1" source="YjqYYw0XFiN7RJlji_GY-37" target="YjqYYw0XFiN7RJlji_GY-38">
          <mxGeometry relative="1" as="geometry">
            <Array as="points">
              <mxPoint x="1090" y="550" />
              <mxPoint x="1090" y="550" />
            </Array>
          </mxGeometry>
        </mxCell>
        <mxCell id="YjqYYw0XFiN7RJlji_GY-37" value="" style="html=1;points=[];perimeter=orthogonalPerimeter;rounded=0;shadow=0;comic=0;labelBackgroundColor=none;strokeWidth=1;fontFamily=Verdana;fontSize=12;align=center;" vertex="1" parent="1">
          <mxGeometry x="817.5" y="500" width="10" height="100" as="geometry" />
        </mxCell>
        <mxCell id="YjqYYw0XFiN7RJlji_GY-41" value="addService" style="text;html=1;align=center;verticalAlign=middle;resizable=0;points=[];autosize=1;strokeColor=none;fillColor=none;" vertex="1" parent="1">
          <mxGeometry x="1050" y="518" width="80" height="30" as="geometry" />
        </mxCell>
        <mxCell id="YjqYYw0XFiN7RJlji_GY-44" style="edgeStyle=orthogonalEdgeStyle;rounded=0;orthogonalLoop=1;jettySize=auto;html=1;dashed=1;" edge="1" parent="1" source="YjqYYw0XFiN7RJlji_GY-28">
          <mxGeometry relative="1" as="geometry">
            <mxPoint x="480" y="484" as="targetPoint" />
            <Array as="points">
              <mxPoint x="580" y="484" />
              <mxPoint x="580" y="484" />
            </Array>
          </mxGeometry>
        </mxCell>
        <mxCell id="YjqYYw0XFiN7RJlji_GY-49" value="" style="edgeStyle=orthogonalEdgeStyle;rounded=0;orthogonalLoop=1;jettySize=auto;html=1;" edge="1" parent="1" source="YjqYYw0XFiN7RJlji_GY-45" target="YjqYYw0XFiN7RJlji_GY-48">
          <mxGeometry relative="1" as="geometry">
            <Array as="points">
              <mxPoint x="770" y="630" />
              <mxPoint x="770" y="630" />
            </Array>
          </mxGeometry>
        </mxCell>
        <mxCell id="YjqYYw0XFiN7RJlji_GY-45" value="" style="html=1;points=[];perimeter=orthogonalPerimeter;rounded=0;shadow=0;comic=0;labelBackgroundColor=none;strokeWidth=1;fontFamily=Verdana;fontSize=12;align=center;" vertex="1" parent="1">
          <mxGeometry x="471" y="541" width="10" height="100" as="geometry" />
        </mxCell>
        <mxCell id="YjqYYw0XFiN7RJlji_GY-51" value="startService" style="text;html=1;align=center;verticalAlign=middle;resizable=0;points=[];autosize=1;strokeColor=none;fillColor=none;" vertex="1" parent="1">
          <mxGeometry x="695" y="598" width="90" height="30" as="geometry" />
        </mxCell>
        <mxCell id="YjqYYw0XFiN7RJlji_GY-55" value="" style="edgeStyle=orthogonalEdgeStyle;rounded=0;orthogonalLoop=1;jettySize=auto;html=1;" edge="1" parent="1" source="YjqYYw0XFiN7RJlji_GY-48" target="YjqYYw0XFiN7RJlji_GY-54">
          <mxGeometry relative="1" as="geometry">
            <Array as="points">
              <mxPoint x="710" y="672" />
              <mxPoint x="710" y="672" />
            </Array>
          </mxGeometry>
        </mxCell>
        <mxCell id="YjqYYw0XFiN7RJlji_GY-60" value="" style="edgeStyle=orthogonalEdgeStyle;rounded=0;orthogonalLoop=1;jettySize=auto;html=1;" edge="1" parent="1" source="YjqYYw0XFiN7RJlji_GY-54" target="YjqYYw0XFiN7RJlji_GY-59">
          <mxGeometry relative="1" as="geometry">
            <Array as="points">
              <mxPoint x="803" y="709" />
              <mxPoint x="803" y="710" />
            </Array>
          </mxGeometry>
        </mxCell>
        <mxCell id="YjqYYw0XFiN7RJlji_GY-61" value="new" style="text;html=1;align=center;verticalAlign=middle;resizable=0;points=[];autosize=1;strokeColor=none;fillColor=none;" vertex="1" parent="1">
          <mxGeometry x="757.5" y="676" width="50" height="30" as="geometry" />
        </mxCell>
        <mxCell id="YjqYYw0XFiN7RJlji_GY-63" style="edgeStyle=orthogonalEdgeStyle;rounded=0;orthogonalLoop=1;jettySize=auto;html=1;dashed=1;" edge="1" parent="1" source="YjqYYw0XFiN7RJlji_GY-59">
          <mxGeometry relative="1" as="geometry">
            <mxPoint x="473" y="780" as="targetPoint" />
            <Array as="points">
              <mxPoint x="473" y="780" />
            </Array>
          </mxGeometry>
        </mxCell>
        <mxCell id="YjqYYw0XFiN7RJlji_GY-64" value="return" style="edgeLabel;html=1;align=center;verticalAlign=middle;resizable=0;points=[];" vertex="1" connectable="0" parent="YjqYYw0XFiN7RJlji_GY-63">
          <mxGeometry x="-0.0443" y="-5" relative="1" as="geometry">
            <mxPoint as="offset" />
          </mxGeometry>
        </mxCell>
        <mxCell id="YjqYYw0XFiN7RJlji_GY-74" value="" style="edgeStyle=orthogonalEdgeStyle;rounded=0;orthogonalLoop=1;jettySize=auto;html=1;" edge="1" parent="1" source="YjqYYw0XFiN7RJlji_GY-66" target="YjqYYw0XFiN7RJlji_GY-73">
          <mxGeometry relative="1" as="geometry" />
        </mxCell>
        <mxCell id="YjqYYw0XFiN7RJlji_GY-76" value="addService" style="text;html=1;align=center;verticalAlign=middle;resizable=0;points=[];autosize=1;strokeColor=none;fillColor=none;" vertex="1" parent="1">
          <mxGeometry x="1040" y="858" width="80" height="30" as="geometry" />
        </mxCell>
      </root>
    </mxGraphModel>
  </diagram>
</mxfile>
